<?xml version="1.0" encoding="UTF-8"?>
<svg xmlns="http://www.w3.org/2000/svg" xmlns:xlink="http://www.w3.org/1999/xlink" width="2032" height="4573" viewBox="0 0 2032 4573">
<path fill-rule="nonzero" fill="#ffffff" fill-opacity="1" d="M 2006.878906 0 L 1235.410156 485.578125 L 1235.410156 1586.691406 L 1327.050781 1531.179688 C 1350.320312 1517.089844 1376.878906 1509.378906 1404.078125 1508.808594 C 1459.390625 1507.648438 1511.230469 1536.140625 1539.890625 1583.449219 C 1584.070312 1656.390625 1560.558594 1752.109375 1487.621094 1796.289062 L 1235.410156 1949.058594 L 1235.410156 4034.660156 L 2031.628906 4572.878906 Z M 835.597656 1061.28125 C 743.9375 1061.28125 656.027344 1097.691406 591.210938 1162.511719 C 526.394531 1227.320312 489.984375 1315.230469 489.984375 1406.898438 C 489.984375 1498.558594 526.394531 1586.46875 591.210938 1651.28125 C 656.027344 1716.101562 743.9375 1752.511719 835.597656 1752.511719 C 927.261719 1752.511719 1015.171875 1716.101562 1079.988281 1651.28125 C 1144.800781 1586.46875 1181.210938 1498.558594 1181.210938 1406.898438 C 1181.210938 1216.019531 1026.480469 1061.28125 835.597656 1061.28125 Z M 1564.980469 1294.949219 C 1566.019531 1294.890625 1567.050781 1294.980469 1568.058594 1295.210938 C 1572.179688 1296.160156 1575.390625 1299.410156 1576.269531 1303.558594 L 1596.789062 1399.949219 L 1677.089844 1352.808594 C 1680.789062 1350.640625 1685.410156 1350.839844 1688.898438 1353.320312 C 1692.390625 1355.789062 1694.121094 1360.089844 1693.300781 1364.289062 L 1677.53125 1445.320312 L 1759.289062 1447.390625 C 1763.570312 1447.5 1767.390625 1450.101562 1769.058594 1454.050781 C 1770.71875 1457.988281 1769.921875 1462.550781 1767.011719 1465.691406 L 1704.691406 1532.828125 L 1749.601562 1563 C 1753.328125 1565.511719 1755.140625 1570.050781 1754.160156 1574.429688 C 1753.171875 1578.820312 1749.601562 1582.148438 1745.160156 1582.820312 L 1670.710938 1594.070312 L 1703.25 1673.589844 C 1704.789062 1677.351562 1704.101562 1681.648438 1701.480469 1684.75 C 1698.851562 1687.859375 1694.71875 1689.238281 1690.761719 1688.351562 L 1652.390625 1679.648438 C 1646.519531 1678.320312 1642.839844 1672.480469 1644.171875 1666.609375 C 1645.511719 1660.75 1651.339844 1657.070312 1657.210938 1658.398438 L 1675.140625 1662.460938 L 1645.28125 1589.488281 C 1644.011719 1586.398438 1644.230469 1582.890625 1645.890625 1579.980469 C 1647.539062 1577.078125 1650.429688 1575.089844 1653.738281 1574.589844 L 1714.179688 1565.460938 L 1681.941406 1543.820312 C 1679.300781 1542.039062 1677.558594 1539.191406 1677.191406 1536.019531 C 1676.828125 1532.859375 1677.871094 1529.679688 1680.039062 1527.351562 L 1734.601562 1468.570312 L 1664.109375 1466.789062 C 1660.898438 1466.710938 1657.890625 1465.230469 1655.878906 1462.730469 C 1653.871094 1460.21875 1653.058594 1456.960938 1653.679688 1453.820312 L 1667.289062 1383.828125 L 1594.789062 1426.390625 C 1591.769531 1428.160156 1588.078125 1428.371094 1584.878906 1426.960938 C 1581.679688 1425.550781 1579.351562 1422.679688 1578.621094 1419.261719 L 1559.820312 1330.96875 L 1506.578125 1399.25 C 1504.320312 1402.140625 1500.769531 1403.699219 1497.109375 1403.410156 C 1493.460938 1403.109375 1490.191406 1401 1488.429688 1397.789062 L 1464.511719 1354.148438 L 1455.941406 1406.390625 C 1455.460938 1409.328125 1453.789062 1411.941406 1451.328125 1413.621094 C 1448.871094 1415.308594 1445.828125 1415.910156 1442.910156 1415.289062 L 1383.628906 1402.640625 L 1394.898438 1422.441406 C 1397.871094 1427.679688 1396.050781 1434.328125 1390.820312 1437.308594 C 1385.589844 1440.28125 1378.929688 1438.460938 1375.949219 1433.230469 L 1352.671875 1392.308594 C 1350.550781 1388.578125 1350.820312 1383.949219 1353.351562 1380.480469 C 1355.890625 1377.019531 1360.21875 1375.371094 1364.421875 1376.269531 L 1436.289062 1391.589844 L 1448.128906 1319.421875 C 1448.878906 1314.828125 1452.460938 1311.21875 1457.050781 1310.441406 C 1461.628906 1309.660156 1466.210938 1311.871094 1468.441406 1315.941406 L 1499.578125 1372.769531 L 1557.011719 1299.121094 C 1558.941406 1296.648438 1561.851562 1295.121094 1564.980469 1294.941406 Z M 1404.640625 1535.179688 C 1382.070312 1535.660156 1360.03125 1542.058594 1340.71875 1553.75 L 873.265625 1836.878906 L 448.355469 1798.359375 C 414.394531 1795.28125 380.597656 1805.820312 354.402344 1827.660156 C 328.207031 1849.488281 311.761719 1880.839844 308.683594 1914.808594 C 305.601562 1948.769531 316.140625 1982.570312 337.976562 2008.761719 C 359.816406 2034.949219 391.164062 2051.398438 425.128906 2054.480469 L 892.128906 2096.828125 C 919.464844 2099.300781 946.878906 2092.96875 970.359375 2078.75 L 1473.949219 1773.71875 C 1534.691406 1736.929688 1554.109375 1657.859375 1517.320312 1597.121094 C 1493.519531 1557.828125 1450.570312 1534.21875 1404.640625 1535.179688 Z M 466.496094 1679.921875 C 448.945312 1679.300781 431.375 1680.070312 413.945312 1682.199219 C 269.804688 1699.871094 153.4375 1808.351562 125.703125 1950.898438 C 125.703125 1950.898438 86.132812 2151.46875 46.304688 2298.78125 C -30.507812 2582.910156 11.421875 2860.761719 11.421875 2860.761719 C 14.457031 2900.5 24.554688 2939.390625 41.242188 2975.589844 C 41.804688 2995.988281 45.601562 3016.171875 52.488281 3035.378906 L 307.292969 3733.457031 L 228.996094 4339.386719 C 215.351562 4445.03125 289.925781 4541.734375 395.570312 4555.386719 C 501.214844 4569.039062 597.925781 4494.46875 611.582031 4388.824219 L 695.902344 3736.230469 C 699.863281 3705.570312 696.394531 3674.410156 685.792969 3645.371094 L 499.242188 3134.28125 C 618.667969 3072.761719 689.824219 2945.871094 680.042969 2811.890625 C 680.042969 2811.890625 680.472656 2521.910156 693.492188 2473.75 C 731.601562 2332.789062 763.765625 2178.859375 777.058594 2112.890625 L 422.757812 2080.761719 C 337.832031 2073.058594 274.710938 1997.351562 282.414062 1912.429688 C 290.113281 1827.5 365.824219 1764.378906 450.75 1772.078125 L 708.023438 1795.410156 C 658.953125 1738.769531 592.320312 1700.210938 518.765625 1685.878906 C 501.53125 1682.53125 484.054688 1680.53125 466.507812 1679.921875 Z M 740.382812 2450.929688 C 737.503906 2461.980469 734.65625 2473.058594 731.695312 2484.019531 L 731.695312 2484.03125 C 731.695312 2484.039062 731.695312 2484.039062 731.695312 2484.039062 C 731.695312 2484.039062 731.695312 2484.039062 731.695312 2484.050781 L 731.695312 2484.058594 C 731.695312 2484.070312 731.695312 2484.070312 731.695312 2484.070312 C 731.039062 2486.5 727.238281 2515.859375 725.410156 2549.058594 C 723.578125 2582.269531 722.3125 2622.730469 721.453125 2661.738281 C 719.75 2738.789062 719.625 2809.070312 719.621094 2810.808594 C 722.386719 2851.308594 718.476562 2890.75 708.972656 2928.160156 L 808.75 3048.480469 C 830.519531 3074.738281 861.824219 3091.269531 895.78125 3094.441406 C 929.738281 3097.609375 963.5625 3087.160156 989.816406 3065.390625 C 1016.070312 3043.628906 1032.601562 3012.320312 1035.769531 2978.371094 C 1038.941406 2944.410156 1028.5 2910.589844 1006.730469 2884.339844 L 739.1875 2561.691406 Z M 699.632812 2959.351562 C 671.890625 3038.699219 618.015625 3106.550781 547.75 3151.769531 L 722.964844 3631.800781 C 735.742188 3666.792969 739.917969 3704.351562 735.148438 3741.296875 L 704.882812 3975.535156 L 749.515625 4341.933594 C 762.398438 4447.671875 858.558594 4522.953125 964.300781 4510.074219 C 1070.039062 4497.191406 1145.320312 4401.03125 1132.441406 4295.289062 L 1057.289062 3678.316406 C 1054.519531 3655.578125 1047.710938 3633.511719 1037.199219 3613.15625 Z M 699.632812 2959.351562 "/>
</svg>
